<mxfile host="app.diagrams.net" modified="2023-08-07T08:22:20.535Z" agent="Mozilla/5.0 (Windows NT 10.0; Win64; x64) AppleWebKit/537.36 (KHTML, like Gecko) Chrome/115.0.0.0 Safari/537.36" etag="aPYmPU9uiTt-wHkfFFFI" version="21.6.6" type="github">
  <diagram name="第 1 页" id="uGkZLmXclBiTkVDywMLg">
    <mxGraphModel dx="1050" dy="630" grid="1" gridSize="10" guides="1" tooltips="1" connect="1" arrows="1" fold="1" page="1" pageScale="1" pageWidth="827" pageHeight="1169" math="0" shadow="0">
      <root>
        <mxCell id="0" />
        <mxCell id="1" parent="0" />
        <mxCell id="KXxzeb0cOko_NzT7TN8d-67" value="" style="rounded=0;whiteSpace=wrap;html=1;dashed=1;" vertex="1" parent="1">
          <mxGeometry x="390" y="660" width="280" height="180" as="geometry" />
        </mxCell>
        <mxCell id="KXxzeb0cOko_NzT7TN8d-68" value="" style="rounded=0;whiteSpace=wrap;html=1;dashed=1;" vertex="1" parent="1">
          <mxGeometry x="90" y="850" width="580" height="270" as="geometry" />
        </mxCell>
        <mxCell id="KXxzeb0cOko_NzT7TN8d-66" value="" style="rounded=0;whiteSpace=wrap;html=1;dashed=1;" vertex="1" parent="1">
          <mxGeometry x="90" y="660" width="280" height="180" as="geometry" />
        </mxCell>
        <mxCell id="KXxzeb0cOko_NzT7TN8d-1" value="支付宝" style="rounded=0;whiteSpace=wrap;html=1;strokeColor=#0F8B8D;fontColor=#143642;fillColor=#FAE5C7;" vertex="1" parent="1">
          <mxGeometry x="170" y="180" width="120" height="50" as="geometry" />
        </mxCell>
        <mxCell id="KXxzeb0cOko_NzT7TN8d-2" value="微信" style="rounded=0;whiteSpace=wrap;html=1;strokeColor=#0F8B8D;fontColor=#143642;fillColor=#FAE5C7;" vertex="1" parent="1">
          <mxGeometry x="340" y="180" width="120" height="50" as="geometry" />
        </mxCell>
        <mxCell id="KXxzeb0cOko_NzT7TN8d-3" value="苹果支付" style="rounded=0;whiteSpace=wrap;html=1;strokeColor=#0F8B8D;fontColor=#143642;fillColor=#FAE5C7;" vertex="1" parent="1">
          <mxGeometry x="520" y="180" width="120" height="50" as="geometry" />
        </mxCell>
        <mxCell id="KXxzeb0cOko_NzT7TN8d-4" value="小米支付" style="rounded=0;whiteSpace=wrap;html=1;strokeColor=#0F8B8D;fontColor=#143642;fillColor=#FAE5C7;" vertex="1" parent="1">
          <mxGeometry x="690" y="180" width="120" height="50" as="geometry" />
        </mxCell>
        <mxCell id="KXxzeb0cOko_NzT7TN8d-5" value="渠道数据来源监控" style="text;html=1;strokeColor=none;fillColor=none;align=center;verticalAlign=middle;whiteSpace=wrap;rounded=0;fontColor=#143642;" vertex="1" parent="1">
          <mxGeometry x="40" y="190" width="100" height="30" as="geometry" />
        </mxCell>
        <mxCell id="KXxzeb0cOko_NzT7TN8d-6" value="每日交易订单" style="rounded=0;whiteSpace=wrap;html=1;strokeColor=#82b366;fillColor=#d5e8d4;" vertex="1" parent="1">
          <mxGeometry x="170" y="300" width="120" height="50" as="geometry" />
        </mxCell>
        <mxCell id="KXxzeb0cOko_NzT7TN8d-7" value="苹果订单" style="rounded=0;whiteSpace=wrap;html=1;strokeColor=#82b366;fillColor=#d5e8d4;" vertex="1" parent="1">
          <mxGeometry x="340" y="300" width="120" height="50" as="geometry" />
        </mxCell>
        <mxCell id="KXxzeb0cOko_NzT7TN8d-8" value="书豆书币" style="rounded=0;whiteSpace=wrap;html=1;strokeColor=#82b366;fillColor=#d5e8d4;" vertex="1" parent="1">
          <mxGeometry x="520" y="300" width="120" height="50" as="geometry" />
        </mxCell>
        <mxCell id="KXxzeb0cOko_NzT7TN8d-10" value="交易数据订单监控" style="text;html=1;strokeColor=none;fillColor=none;align=center;verticalAlign=middle;whiteSpace=wrap;rounded=0;fontColor=#143642;" vertex="1" parent="1">
          <mxGeometry x="40" y="310" width="100" height="30" as="geometry" />
        </mxCell>
        <mxCell id="KXxzeb0cOko_NzT7TN8d-11" value="第三方订单" style="rounded=0;whiteSpace=wrap;html=1;strokeColor=#82b366;fillColor=#d5e8d4;" vertex="1" parent="1">
          <mxGeometry x="690" y="300" width="120" height="50" as="geometry" />
        </mxCell>
        <mxCell id="KXxzeb0cOko_NzT7TN8d-14" value="广告打点数据" style="rounded=0;whiteSpace=wrap;html=1;strokeColor=#b85450;fillColor=#f8cecc;" vertex="1" parent="1">
          <mxGeometry x="220" y="410" width="120" height="50" as="geometry" />
        </mxCell>
        <mxCell id="KXxzeb0cOko_NzT7TN8d-15" value="流水线任务" style="rounded=0;whiteSpace=wrap;html=1;strokeColor=#b85450;fillColor=#f8cecc;" vertex="1" parent="1">
          <mxGeometry x="390" y="410" width="120" height="50" as="geometry" />
        </mxCell>
        <mxCell id="KXxzeb0cOko_NzT7TN8d-16" value="大数据监控" style="text;html=1;strokeColor=none;fillColor=none;align=center;verticalAlign=middle;whiteSpace=wrap;rounded=0;fontColor=#143642;" vertex="1" parent="1">
          <mxGeometry x="40" y="420" width="100" height="30" as="geometry" />
        </mxCell>
        <mxCell id="KXxzeb0cOko_NzT7TN8d-17" value="书籍是否到期" style="rounded=0;whiteSpace=wrap;html=1;strokeColor=#9673a6;fillColor=#e1d5e7;" vertex="1" parent="1">
          <mxGeometry x="170" y="510" width="120" height="50" as="geometry" />
        </mxCell>
        <mxCell id="KXxzeb0cOko_NzT7TN8d-18" value="版权是否到期" style="rounded=0;whiteSpace=wrap;html=1;strokeColor=#9673a6;fillColor=#e1d5e7;" vertex="1" parent="1">
          <mxGeometry x="340" y="510" width="120" height="50" as="geometry" />
        </mxCell>
        <mxCell id="KXxzeb0cOko_NzT7TN8d-19" value="小说是否到期" style="rounded=0;whiteSpace=wrap;html=1;strokeColor=#9673a6;fillColor=#e1d5e7;" vertex="1" parent="1">
          <mxGeometry x="530" y="510" width="120" height="50" as="geometry" />
        </mxCell>
        <mxCell id="KXxzeb0cOko_NzT7TN8d-20" value="日结数据" style="rounded=0;whiteSpace=wrap;html=1;strokeColor=#b85450;fillColor=#f8cecc;" vertex="1" parent="1">
          <mxGeometry x="590" y="410" width="120" height="50" as="geometry" />
        </mxCell>
        <mxCell id="KXxzeb0cOko_NzT7TN8d-21" value="基础信息监控" style="text;html=1;align=center;verticalAlign=middle;resizable=0;points=[];autosize=1;strokeColor=none;fillColor=none;fontColor=#143642;" vertex="1" parent="1">
          <mxGeometry x="40" y="520" width="100" height="30" as="geometry" />
        </mxCell>
        <mxCell id="KXxzeb0cOko_NzT7TN8d-22" value="图书数据是否缺失" style="rounded=0;whiteSpace=wrap;html=1;strokeColor=#9673a6;fillColor=#e1d5e7;" vertex="1" parent="1">
          <mxGeometry x="690" y="510" width="120" height="50" as="geometry" />
        </mxCell>
        <mxCell id="KXxzeb0cOko_NzT7TN8d-23" value="" style="endArrow=none;dashed=1;html=1;dashPattern=1 3;strokeWidth=2;rounded=0;strokeColor=#A8201A;fontColor=#143642;fillColor=#FAE5C7;" edge="1" parent="1">
          <mxGeometry width="50" height="50" relative="1" as="geometry">
            <mxPoint x="20" y="270" as="sourcePoint" />
            <mxPoint x="840" y="270" as="targetPoint" />
          </mxGeometry>
        </mxCell>
        <mxCell id="KXxzeb0cOko_NzT7TN8d-24" value="" style="endArrow=none;dashed=1;html=1;dashPattern=1 3;strokeWidth=2;rounded=0;strokeColor=#A8201A;fontColor=#143642;fillColor=#FAE5C7;" edge="1" parent="1">
          <mxGeometry width="50" height="50" relative="1" as="geometry">
            <mxPoint x="20" y="380" as="sourcePoint" />
            <mxPoint x="840" y="380" as="targetPoint" />
          </mxGeometry>
        </mxCell>
        <mxCell id="KXxzeb0cOko_NzT7TN8d-25" value="" style="endArrow=none;dashed=1;html=1;dashPattern=1 3;strokeWidth=2;rounded=0;strokeColor=#A8201A;fontColor=#143642;fillColor=#FAE5C7;" edge="1" parent="1">
          <mxGeometry width="50" height="50" relative="1" as="geometry">
            <mxPoint x="20" y="480" as="sourcePoint" />
            <mxPoint x="840" y="480" as="targetPoint" />
          </mxGeometry>
        </mxCell>
        <mxCell id="KXxzeb0cOko_NzT7TN8d-26" value="" style="endArrow=none;dashed=1;html=1;dashPattern=1 3;strokeWidth=2;rounded=0;strokeColor=#A8201A;fontColor=#143642;fillColor=#FAE5C7;" edge="1" parent="1">
          <mxGeometry width="50" height="50" relative="1" as="geometry">
            <mxPoint x="20" y="580" as="sourcePoint" />
            <mxPoint x="840" y="580" as="targetPoint" />
          </mxGeometry>
        </mxCell>
        <mxCell id="KXxzeb0cOko_NzT7TN8d-27" value="" style="endArrow=none;dashed=1;html=1;dashPattern=1 3;strokeWidth=2;rounded=0;strokeColor=#A8201A;fontColor=#143642;fillColor=#FAE5C7;" edge="1" parent="1">
          <mxGeometry width="50" height="50" relative="1" as="geometry">
            <mxPoint x="20" y="160" as="sourcePoint" />
            <mxPoint x="840" y="160" as="targetPoint" />
          </mxGeometry>
        </mxCell>
        <mxCell id="KXxzeb0cOko_NzT7TN8d-28" value="渠道数据监控" style="rounded=0;whiteSpace=wrap;html=1;strokeColor=#0F8B8D;fontColor=#143642;fillColor=#FAE5C7;" vertex="1" parent="1">
          <mxGeometry x="100" y="730" width="110" height="30" as="geometry" />
        </mxCell>
        <mxCell id="KXxzeb0cOko_NzT7TN8d-29" value="交易数据监控" style="rounded=0;whiteSpace=wrap;html=1;strokeColor=#0F8B8D;fontColor=#143642;fillColor=#FAE5C7;" vertex="1" parent="1">
          <mxGeometry x="230" y="730" width="110" height="30" as="geometry" />
        </mxCell>
        <mxCell id="KXxzeb0cOko_NzT7TN8d-30" value="大数据监控" style="rounded=0;whiteSpace=wrap;html=1;strokeColor=#0F8B8D;fontColor=#143642;fillColor=#FAE5C7;" vertex="1" parent="1">
          <mxGeometry x="100" y="790" width="110" height="30" as="geometry" />
        </mxCell>
        <mxCell id="KXxzeb0cOko_NzT7TN8d-31" value="基础信息监控" style="rounded=0;whiteSpace=wrap;html=1;strokeColor=#0F8B8D;fontColor=#143642;fillColor=#FAE5C7;" vertex="1" parent="1">
          <mxGeometry x="230" y="790" width="110" height="30" as="geometry" />
        </mxCell>
        <mxCell id="KXxzeb0cOko_NzT7TN8d-33" value="监控报警" style="rounded=0;whiteSpace=wrap;html=1;fillColor=#dae8fc;strokeColor=#6c8ebf;" vertex="1" parent="1">
          <mxGeometry x="100" y="670" width="240" height="30" as="geometry" />
        </mxCell>
        <mxCell id="KXxzeb0cOko_NzT7TN8d-34" value="数据处理模块化" style="rounded=0;whiteSpace=wrap;html=1;strokeColor=#6c8ebf;fillColor=#dae8fc;" vertex="1" parent="1">
          <mxGeometry x="110" y="870" width="540" height="30" as="geometry" />
        </mxCell>
        <mxCell id="KXxzeb0cOko_NzT7TN8d-36" value="支付宝" style="rounded=0;whiteSpace=wrap;html=1;strokeColor=#b85450;fillColor=#f8cecc;" vertex="1" parent="1">
          <mxGeometry x="220" y="920" width="90" height="30" as="geometry" />
        </mxCell>
        <mxCell id="KXxzeb0cOko_NzT7TN8d-37" value="微信" style="rounded=0;whiteSpace=wrap;html=1;strokeColor=#b85450;fillColor=#f8cecc;" vertex="1" parent="1">
          <mxGeometry x="340" y="920" width="80" height="30" as="geometry" />
        </mxCell>
        <mxCell id="KXxzeb0cOko_NzT7TN8d-38" value="苹果支付" style="rounded=0;whiteSpace=wrap;html=1;strokeColor=#b85450;fillColor=#f8cecc;" vertex="1" parent="1">
          <mxGeometry x="455" y="920" width="80" height="30" as="geometry" />
        </mxCell>
        <mxCell id="KXxzeb0cOko_NzT7TN8d-39" value="小米支付" style="rounded=0;whiteSpace=wrap;html=1;strokeColor=#b85450;fillColor=#f8cecc;" vertex="1" parent="1">
          <mxGeometry x="570" y="920" width="80" height="30" as="geometry" />
        </mxCell>
        <mxCell id="KXxzeb0cOko_NzT7TN8d-42" value="账单解析" style="rounded=0;whiteSpace=wrap;html=1;strokeColor=#82b366;fillColor=#d5e8d4;" vertex="1" parent="1">
          <mxGeometry x="220" y="970" width="430" height="30" as="geometry" />
        </mxCell>
        <mxCell id="KXxzeb0cOko_NzT7TN8d-49" value="三方数据核对" style="rounded=0;whiteSpace=wrap;html=1;strokeColor=#6c8ebf;fillColor=#dae8fc;" vertex="1" parent="1">
          <mxGeometry x="220" y="1020" width="90" height="30" as="geometry" />
        </mxCell>
        <mxCell id="KXxzeb0cOko_NzT7TN8d-50" value="订单核对" style="rounded=0;whiteSpace=wrap;html=1;strokeColor=#6c8ebf;fillColor=#dae8fc;" vertex="1" parent="1">
          <mxGeometry x="340" y="1020" width="80" height="30" as="geometry" />
        </mxCell>
        <mxCell id="KXxzeb0cOko_NzT7TN8d-51" value="金额核对" style="rounded=0;whiteSpace=wrap;html=1;strokeColor=#6c8ebf;fillColor=#dae8fc;" vertex="1" parent="1">
          <mxGeometry x="455" y="1020" width="80" height="30" as="geometry" />
        </mxCell>
        <mxCell id="KXxzeb0cOko_NzT7TN8d-52" value="基础数据核对" style="rounded=0;whiteSpace=wrap;html=1;strokeColor=#6c8ebf;fillColor=#dae8fc;" vertex="1" parent="1">
          <mxGeometry x="570" y="1020" width="80" height="30" as="geometry" />
        </mxCell>
        <mxCell id="KXxzeb0cOko_NzT7TN8d-54" value="金额差异处理" style="rounded=0;whiteSpace=wrap;html=1;strokeColor=#d6b656;fillColor=#fff2cc;" vertex="1" parent="1">
          <mxGeometry x="220" y="1070" width="90" height="30" as="geometry" />
        </mxCell>
        <mxCell id="KXxzeb0cOko_NzT7TN8d-55" value="阶梯分层" style="rounded=0;whiteSpace=wrap;html=1;strokeColor=#d6b656;fillColor=#fff2cc;" vertex="1" parent="1">
          <mxGeometry x="380" y="1070" width="110" height="30" as="geometry" />
        </mxCell>
        <mxCell id="KXxzeb0cOko_NzT7TN8d-56" value="分层比例调控" style="rounded=0;whiteSpace=wrap;html=1;strokeColor=#d6b656;fillColor=#fff2cc;" vertex="1" parent="1">
          <mxGeometry x="560" y="1070" width="90" height="30" as="geometry" />
        </mxCell>
        <mxCell id="KXxzeb0cOko_NzT7TN8d-57" value="结算数据异常预警处理系统" style="rounded=0;whiteSpace=wrap;html=1;fillColor=#dae8fc;strokeColor=#6c8ebf;" vertex="1" parent="1">
          <mxGeometry x="410" y="670" width="240" height="30" as="geometry" />
        </mxCell>
        <mxCell id="KXxzeb0cOko_NzT7TN8d-58" value="日结" style="rounded=0;whiteSpace=wrap;html=1;strokeColor=#0F8B8D;fontColor=#143642;fillColor=#FAE5C7;" vertex="1" parent="1">
          <mxGeometry x="410" y="730" width="100" height="30" as="geometry" />
        </mxCell>
        <mxCell id="KXxzeb0cOko_NzT7TN8d-59" value="数鲸看板" style="rounded=0;whiteSpace=wrap;html=1;strokeColor=#0F8B8D;fontColor=#143642;fillColor=#FAE5C7;" vertex="1" parent="1">
          <mxGeometry x="550" y="730" width="100" height="30" as="geometry" />
        </mxCell>
        <mxCell id="KXxzeb0cOko_NzT7TN8d-60" value="月结模拟系统" style="rounded=0;whiteSpace=wrap;html=1;strokeColor=#0F8B8D;fontColor=#143642;fillColor=#FAE5C7;" vertex="1" parent="1">
          <mxGeometry x="410" y="790" width="100" height="30" as="geometry" />
        </mxCell>
        <mxCell id="KXxzeb0cOko_NzT7TN8d-61" value="回溯任务" style="whiteSpace=wrap;html=1;strokeColor=#0F8B8D;fontColor=#143642;fillColor=#FAE5C7;" vertex="1" parent="1">
          <mxGeometry x="550" y="790" width="100" height="30" as="geometry" />
        </mxCell>
        <mxCell id="KXxzeb0cOko_NzT7TN8d-62" value="数据获取模块" style="strokeWidth=1;html=1;shape=mxgraph.flowchart.delay;whiteSpace=wrap;strokeColor=#b85450;fillColor=#f8cecc;" vertex="1" parent="1">
          <mxGeometry x="110" y="920" width="90" height="30" as="geometry" />
        </mxCell>
        <mxCell id="KXxzeb0cOko_NzT7TN8d-63" value="数据标准化模块" style="strokeWidth=1;html=1;shape=mxgraph.flowchart.delay;whiteSpace=wrap;strokeColor=#82b366;fillColor=#d5e8d4;" vertex="1" parent="1">
          <mxGeometry x="110" y="970" width="90" height="30" as="geometry" />
        </mxCell>
        <mxCell id="KXxzeb0cOko_NzT7TN8d-64" value="数据核对模块" style="strokeWidth=1;html=1;shape=mxgraph.flowchart.delay;whiteSpace=wrap;strokeColor=#6c8ebf;fillColor=#dae8fc;" vertex="1" parent="1">
          <mxGeometry x="110" y="1020" width="90" height="30" as="geometry" />
        </mxCell>
        <mxCell id="KXxzeb0cOko_NzT7TN8d-65" value="数据结算模块" style="strokeWidth=1;html=1;shape=mxgraph.flowchart.delay;whiteSpace=wrap;strokeColor=#d6b656;fillColor=#fff2cc;" vertex="1" parent="1">
          <mxGeometry x="110" y="1070" width="90" height="30" as="geometry" />
        </mxCell>
      </root>
    </mxGraphModel>
  </diagram>
</mxfile>
